# xmcd
#
# Track frame offsets:
#	150
#	57955
#	86547
#	96392
#	103185
#	130465
#	152862
#	200880
#	215617
#	254492
#
# Disc length: 4520 seconds
#
# Revision: 1
# Processed by: cddbd v1.5.1PL0 Copyright (c) Steve Scherf et al.
# Submitted via: audiograbber 1.83.01
#
DISCID=9b11a60a
DTITLE=Stevie Ray Vaughan - Triple Trouble
DYEAR=1983
DGENRE=Blues
TTITLE0=Texas flood/Stormy Monday blues
TTITLE1=Matchbox blues
TTITLE2=Instrumental jam 1
TTITLE3=Instrumental jam 2
TTITLE4=Pride and joy
TTITLE5=Ask me no questions
TTITLE6=Outskirts of town
TTITLE7=Its called the blues
TTITLE8=Mary had a little lamb
TTITLE9=Leave my girl alone
EXTD=1-7 live with Albert King\n8-10 live with Buddy Guy
EXTT0=
EXTT1=
EXTT2=
EXTT3=
EXTT4=
EXTT5=
EXTT6=
EXTT7=
EXTT8=
EXTT9=
PLAYORDER=
